<svg xmlns="http://www.w3.org/2000/svg" xmlns:svgjs="http://svgjs.com/svgjs" xmlns:xlink="http://www.w3.org/1999/xlink" width="288" height="288"><svg xmlns="http://www.w3.org/2000/svg" width="288" height="288" viewBox="0 0 200 300"><path fill="#6c6c6c" d="M50 300c27.6 0 50-22.4 50-50v-50H50c-27.6 0-50 22.4-50 50s22.4 50 50 50z" class="color0acf83 svgShape"/><path fill="#acacac" d="M0 150c0-27.6 22.4-50 50-50h50v100H50c-27.6 0-50-22.4-50-50z" class="colora259ff svgShape"/><path fill="#888" d="M0 50C0 22.4 22.4 0 50 0h50v100H50C22.4 100 0 77.6 0 50z" class="colorf24e1e svgShape"/><path fill="#b0b0b0" d="M100 0h50c27.6 0 50 22.4 50 50s-22.4 50-50 50h-50V0z" class="colorff7262 svgShape"/><path fill="#8c8c8c" d="M200 150c0 27.6-22.4 50-50 50s-50-22.4-50-50 22.4-50 50-50 50 22.4 50 50z" class="color1abcfe svgShape"/></svg></svg>