<?xml version="1.0" encoding="utf-8"?>
<!-- Generator: Adobe Illustrator 23.1.1, SVG Export Plug-In . SVG Version: 6.00 Build 0)  -->
<svg version="1.1" id="Layer_1" xmlns="http://www.w3.org/2000/svg" xmlns:xlink="http://www.w3.org/1999/xlink" x="0px" y="0px"
	 viewBox="0 0 50 50" style="enable-background:new 0 0 50 50;" xml:space="preserve">
<style type="text/css">
	.st0{fill:#696969;}
</style>
<path class="st0" d="M29.9,3c-0.1,0-0.2,0-0.3,0.1c-0.9,0.4-1.8,1.7-2,1.9c0,0,0,0,0,0C26.5,6.5,26,8.2,26,10c0,1.3,0.2,2.6,0.8,3.9
	c1.2,2.9,3.8,5.3,6.8,6.5c0.1,0,0.2,0.1,0.4,0.1c0,0,0.2,0.1,0.2,0.1l0.1,0c0.2,0.1,0.3,0.1,0.5,0.1c0.8,0.2,1.6,0.2,2.3,0.3
	c0.1,0,0.2,0,0.4,0c5.5,0,7.6-3.9,8.3-5.2c0.1-0.1,0.1-0.2,0.2-0.3c0,0,0,0,0,0c0.3-0.5,0.2-1.1-0.3-1.4c-0.5-0.3-1.1-0.2-1.4,0.3h0
	c-1.5,2.2-4,2.8-7.4,1.9c-0.3-0.1-0.5-0.2-0.8-0.3c-0.3-0.1-0.7-0.3-1-0.4c-0.6-0.3-1.2-0.7-1.7-1.1c-3-2.4-4.2-7.3-2.5-10.1
	c0.2-0.4,0.2-0.9-0.1-1.2C30.5,3.1,30.2,3,29.9,3z M21,5c-0.2,0-0.5,0.1-0.6,0.2c-1.5,1.2-3.1,3.2-3.1,3.3c0,0,0,0,0,0
	c-2.7,4-2.9,9.6-0.5,14.4c0.4,0.8,0.8,1.5,1.3,2.1l0.1,0.2c0.4,0.6,0.8,1.2,1.4,1.7c0.2,0.2,0.4,0.4,0.6,0.6l0.1,0.1l0.1,0.1
	c0.2,0.2,0.4,0.4,0.6,0.6h0c0,0,0,0,0.1,0.1c0.2,0.2,0.5,0.4,0.8,0.7l0.1,0.1c0.3,0.2,0.5,0.4,0.8,0.6c0,0,0.1,0,0.1,0.1
	c0.1,0.1,0.2,0.1,0.3,0.2l0.1,0.1l0.1,0.1c0.2,0.1,0.4,0.3,0.7,0.4c0.2,0.1,0.4,0.2,0.5,0.3c0.1,0,0.1,0.1,0.2,0.1l0.3,0.2
	c0,0,0.1,0,0.1,0c0.2,0.1,0.4,0.2,0.6,0.3l0.3,0.1c0.2,0.1,0.4,0.2,0.7,0.3l0.1,0c0,0,0.1,0,0.1,0c0.2,0.1,0.4,0.1,0.6,0.2l0.4,0.1
	c0.2,0.1,0.5,0.2,0.8,0.2c1.4,0.2,2.7,0.3,3.9,0.3c0.1,0,0.3,0,0.4,0c11-0.2,13.9-9.6,13.9-9.7c0.1-0.5-0.1-1-0.5-1.2
	s-1-0.1-1.3,0.3c-2.8,4.1-8.1,5.8-13.5,4.4c-0.2-0.1-0.5-0.1-0.8-0.2c-0.1,0-0.1,0-0.2-0.1c-0.2-0.1-0.3-0.1-0.5-0.2l-0.3-0.1
	c-0.2-0.1-0.3-0.1-0.5-0.2L29.3,26c-0.2-0.1-0.5-0.2-0.7-0.3L28,25.4c-0.1-0.1-0.2-0.1-0.4-0.2l-0.1-0.1L27.4,25
	c-0.1-0.1-0.3-0.2-0.4-0.3l-0.1-0.1c0,0-0.1-0.1-0.1-0.1c-0.1-0.1-0.2-0.1-0.3-0.2c-0.2-0.2-0.5-0.4-0.8-0.6l-0.1-0.1
	c-2.6-2.1-4.5-4.8-5.4-7.8c-0.8-2.7-0.2-6.2,1.7-9.5c0.2-0.4,0.2-0.9-0.2-1.3C21.5,5.1,21.2,5,21,5z M10,8C9.8,8,9.5,8.1,9.3,8.3
	C7.4,10,6,12.2,5.8,12.4c-4.1,5.9-3.3,15.2-0.5,20.8c0.1,0.1,0.1,0.2,0.2,0.3l0,0.1c0.1,0.1,0.1,0.2,0.1,0.3c0,0.1,0.1,0.2,0.1,0.2
	c0,0.1,0.1,0.2,0.2,0.3L6.3,35c0,0.1,0.1,0.2,0.1,0.2c0.1,0.1,0.1,0.2,0.2,0.3l0.2,0.2c0,0.1,0.1,0.1,0.1,0.2
	c0.2,0.2,0.3,0.5,0.5,0.7c0,0,0,0,0,0l0.1,0.1c0.1,0.2,0.3,0.4,0.4,0.6l0.6,0.7c0,0,0.1,0.1,0.1,0.1l0.1,0.1
	c0.2,0.2,0.4,0.4,0.5,0.6c0,0,0.1,0.1,0.1,0.1c0.2,0.2,0.4,0.4,0.5,0.6l0.2,0.2c0.1,0.2,0.3,0.3,0.5,0.5c0,0,0.1,0.1,0.1,0.1
	l0.2,0.1c0.2,0.2,0.4,0.4,0.5,0.5c0,0,0.1,0.1,0.2,0.1c0.2,0.2,0.4,0.3,0.6,0.5l1,0.8c0.2,0.1,0.3,0.2,0.5,0.4
	c0.1,0,0.1,0.1,0.2,0.1c0,0,0.1,0,0.1,0.1l0.7,0.5c0.3,0.2,0.5,0.3,0.8,0.5l0.2,0.1c0.2,0.1,0.4,0.2,0.6,0.3
	c0.1,0.1,0.2,0.1,0.3,0.2c0.1,0.1,0.3,0.2,0.5,0.3c0,0,0.2,0.1,0.2,0.1c0.2,0.1,0.5,0.2,0.7,0.3c0,0,0.1,0,0.1,0
	c0.3,0.1,0.5,0.2,0.9,0.4c0.1,0,0.1,0,0.1,0c0.2,0.1,0.5,0.2,0.7,0.3c0,0,0.1,0.1,0.1,0.1c0.3,0.1,0.6,0.2,0.9,0.3
	c0.1,0,0.1,0,0.1,0l0.2,0.1c0.2,0.1,0.5,0.2,0.7,0.2c1.9,0.3,3.7,0.5,5.4,0.5h0c14.3,0,18.9-11.5,18.9-11.6c0.2-0.5,0-1-0.5-1.2
	c-0.4-0.2-1-0.1-1.3,0.3c-3.7,4.8-10.6,6.6-18.5,4.8c-0.2,0-0.4-0.1-0.6-0.2l-0.4-0.1c-0.3-0.1-0.5-0.2-0.8-0.2c0,0-0.1,0-0.1,0
	c-0.2-0.1-0.4-0.2-0.6-0.2L23,38.3c-0.2-0.1-0.5-0.2-0.7-0.3L22.1,38c-0.2-0.1-0.4-0.2-0.6-0.3c0,0-0.2-0.1-0.2-0.1
	c-0.1-0.1-0.3-0.1-0.5-0.2L20,36.9c-0.1-0.1-0.2-0.1-0.2-0.1c-0.2-0.2-0.5-0.3-0.8-0.5c-0.1,0-0.1-0.1-0.2-0.1
	c-0.2-0.1-0.3-0.2-0.6-0.4l-0.1-0.1c-0.2-0.1-0.3-0.2-0.5-0.3c-0.1-0.1-0.2-0.1-0.3-0.2c-0.1-0.1-0.2-0.2-0.4-0.3l-0.2-0.2
	c-0.2-0.1-0.4-0.3-0.5-0.5c0,0,0,0-0.1-0.1c-0.2-0.2-0.4-0.4-0.6-0.6l-0.7-0.7c-0.2-0.2-0.3-0.4-0.5-0.6c-0.2-0.2-0.4-0.4-0.6-0.7
	l-0.4-0.5c-0.1-0.1-0.1-0.1-0.2-0.2c-0.1-0.2-0.3-0.4-0.4-0.6c-3.9-5.4-4.9-16.5-1.9-20.6c0.3-0.4,0.2-1-0.1-1.3
	C10.5,8.1,10.2,8,10,8z"/>
</svg>
