<svg version="1.2" xmlns="http://www.w3.org/2000/svg" viewBox="0 0 229 234" width="229" height="234">
	<title>noun-bin-2360566-svg</title>
	<style>
		.s0 { fill: #000000 } 
	</style>
	<g id="Layer">
		<path id="Layer" fill-rule="evenodd" class="s0" d="m193 52.5c-0.8 1.4-2.1 2.4-3.6 2.7q-0.8 0.2-1.6 0c-2.5 0.1-4.8-1.5-5.6-3.9-0.7-2.5-3-4.2-5.6-4.1h-123.2c-2.6-0.1-4.9 1.6-5.6 4.1-0.4 1.5-1.5 2.8-2.9 3.5-1.4 0.7-3.1 0.8-4.5 0.2-1.5-0.4-2.7-1.4-3.4-2.7-0.7-1.3-0.8-2.9-0.4-4.3 1.1-3.6 3.3-6.7 6.3-8.9 3.1-2.2 6.8-3.3 10.5-3.1h34c1.5-8.8 7-16.3 15-20.4 7.9-4 17.3-4 25.2 0 8 4.1 13.5 11.6 15 20.4h34c3.7-0.2 7.4 0.9 10.5 3.1 3 2.2 5.2 5.3 6.3 8.9 0.5 1.5 0.4 3.1-0.4 4.5zm-88.3-25.7c-3 2.3-5 5.5-5.9 9.2h32.4c-0.9-3.7-2.9-6.9-5.9-9.2-2.9-2.3-6.6-3.6-10.3-3.6-3.7 0-7.4 1.3-10.3 3.6z"/>
		<path id="Layer" class="s0" d="m175.8 67.7c1 1.1 1.6 2.6 1.5 4.1l-7.5 120.4c-0.2 4.3-2.1 8.3-5.2 11.2-3.2 3-7.3 4.6-11.6 4.6h-76c-4.3 0-8.4-1.6-11.5-4.6-3.1-2.9-5-6.9-5.3-11.2l-7.4-120.4c-0.1-1.5 0.4-3 1.4-4.1 1-1.1 2.4-1.8 3.8-1.9 1.5-0.1 3 0.4 4.1 1.4 1.1 1 1.8 2.4 1.9 3.9l7.4 120.4c0.2 3 2.6 5.3 5.6 5.3h76c2.9 0 5.4-2.3 5.6-5.3l7.4-120.4c0.1-1.5 0.8-2.9 1.9-3.9 1.1-1 2.6-1.5 4-1.4 1.5 0.1 2.9 0.8 3.9 1.9z"/>
		<path id="Layer" class="s0" d="m83.7 167.3l-4.5-73.4c-0.2-3.1 2.1-5.8 5.2-6 1.5-0.1 2.9 0.4 4 1.4 1.1 1 1.8 2.4 1.9 3.9l4.5 73.5c0.2 3-2.1 5.7-5.2 5.9h-0.4c-2.9 0-5.3-2.3-5.5-5.3z"/>
		<path id="Layer" class="s0" d="m140.4 172.6c-3.1-0.3-5.4-2.9-5.2-6l4.6-73.4c0-1.5 0.7-2.9 1.8-3.9 1.1-1 2.6-1.5 4.1-1.4 3.1 0.2 5.4 2.9 5.2 6l-4.5 73.4c-0.2 3-2.7 5.3-5.6 5.3z"/>
		<path id="Layer" class="s0" d="m115 171.6c-3.1 0-5.6-2.5-5.6-5.6v-72.8c0-3.1 2.5-5.6 5.6-5.6 3.1 0 5.6 2.5 5.6 5.6v72.8c0 3.1-2.5 5.6-5.6 5.6z"/>
		<g id="u">
			<path id="Layer" class="s0" d="m-146.2 472.9q-1.5 0.7-3.1 1.1-1.5 0.4-3.2 0.4-5.1 0-8.1-2.9-3-2.8-3-7.7 0-4.9 3-7.7 3-2.9 8.1-2.9 1.7 0 3.2 0.4 1.6 0.4 3.1 1.1v4.3q-1.5-1-2.9-1.5-1.4-0.5-3-0.5-2.8 0-4.4 1.8-1.7 1.8-1.7 5 0 3.2 1.7 5 1.6 1.8 4.4 1.8 1.6 0 3-0.5 1.4-0.4 2.9-1.4z"/>
		</g>
		<g id="b">
			<path id="Layer" class="s0" d="m-130.7 462.9q-0.7-0.3-1.3-0.5-0.6-0.1-1.3-0.1-1.9 0-2.9 1.2-1 1.2-1 3.4v7.1h-4.9v-15.3h4.9v2.5q0.9-1.5 2.2-2.2 1.2-0.7 2.9-0.7 0.2 0 0.5 0 0.3 0.1 0.9 0.1z"/>
		</g>
		<g id="a">
			<path id="Layer" fill-rule="evenodd" class="s0" d="m-113 466.3v1.4h-11.5q0.2 1.7 1.3 2.6 1.1 0.8 3 0.8 1.5 0 3.1-0.4 1.7-0.5 3.4-1.4v3.8q-1.8 0.6-3.5 0.9-1.7 0.4-3.5 0.4-4.1 0-6.4-2.1-2.3-2.1-2.3-5.9 0-3.8 2.2-5.9 2.3-2.2 6.2-2.2 3.7 0 5.8 2.2 2.2 2.2 2.2 5.8zm-5-1.6q0-1.4-0.8-2.3-0.9-0.8-2.2-0.8-1.4 0-2.3 0.8-0.9 0.8-1.1 2.3z"/>
		</g>
		<g id="e">
			<path id="Layer" fill-rule="evenodd" class="s0" d="m-95 465.3v8.7h-4.9v-2.3q-1 1.4-2.2 2.1-1.2 0.6-3 0.6-2.4 0-3.9-1.4-1.5-1.4-1.4-3.6-0.1-2.7 1.8-3.9 1.9-1.3 5.8-1.3h2.9v-0.4q0-1.1-0.9-1.7-0.9-0.5-2.9-0.5-1.5 0-2.9 0.3-1.4 0.3-2.5 0.9v-3.7q1.6-0.4 3.1-0.6 1.6-0.2 3.2-0.2 4.2 0 6 1.7 1.8 1.6 1.8 5.3zm-7.4 1.8q-1.6 0-2.3 0.5-0.8 0.5-0.8 1.6 0 0.9 0.6 1.4 0.6 0.5 1.7 0.5 1.4 0 2.4-0.9 0.9-1 0.9-2.5v-0.6z"/>
		</g>
		<g id="d">
			<path id="Layer" class="s0" d="m-85.1 454.3v4.4h5.1v3.5h-5.1v6.5q0 1.1 0.5 1.4 0.4 0.4 1.6 0.4h2.6v3.5h-4.2q-2.9 0-4.2-1.2-1.2-1.2-1.2-4.1v-6.5h-2.4v-3.5h2.4v-4.4z"/>
		</g>
		<g id="a">
			<path id="Layer" fill-rule="evenodd" class="s0" d="m-61.7 466.3v1.4h-11.5q0.2 1.7 1.3 2.6 1 0.8 3 0.8 1.5 0 3.1-0.4 1.6-0.5 3.3-1.4v3.8q-1.7 0.6-3.4 0.9-1.8 0.4-3.5 0.4-4.2 0-6.5-2.1-2.3-2.1-2.3-5.9 0-3.8 2.3-5.9 2.3-2.2 6.2-2.2 3.6 0 5.8 2.2 2.2 2.2 2.2 5.8zm-5.1-1.6q0-1.4-0.8-2.3-0.8-0.8-2.1-0.8-1.4 0-2.3 0.8-0.9 0.8-1.1 2.3z"/>
		</g>
		<g id="m">
			<path id="Layer" fill-rule="evenodd" class="s0" d="m-47.6 460.9v-8.2h4.9v21.3h-4.9v-2.2q-1 1.3-2.2 2-1.3 0.6-2.9 0.6-2.8 0-4.6-2.3-1.8-2.2-1.8-5.7 0-3.6 1.8-5.8 1.8-2.3 4.6-2.3 1.6 0 2.8 0.7 1.3 0.6 2.3 1.9zm-3.2 9.9q1.5 0 2.4-1.1 0.8-1.1 0.8-3.3 0-2.2-0.8-3.4-0.9-1.1-2.4-1.1-1.6 0-2.4 1.1-0.9 1.2-0.9 3.4 0 2.1 0.9 3.3 0.8 1.1 2.4 1.1z"/>
		</g>
		<g id="l">
			<path id="Layer" fill-rule="evenodd" class="s0" d="m-23.3 460.9q1-1.3 2.2-1.9 1.2-0.7 2.8-0.7 2.9 0 4.7 2.3 1.8 2.2 1.8 5.8 0 3.5-1.8 5.7-1.8 2.3-4.7 2.3-1.6 0-2.8-0.6-1.2-0.7-2.2-2v2.2h-4.9v-21.3h4.9zm3.2 9.9q1.6 0 2.4-1.1 0.8-1.2 0.8-3.3 0-2.2-0.8-3.4-0.8-1.1-2.4-1.1-1.6 0-2.4 1.1-0.8 1.2-0.8 3.4 0 2.1 0.8 3.3 0.8 1.1 2.4 1.1z"/>
		</g>
		<g id="k">
			<path id="Layer" class="s0" d="m-10.2 458.7h4.9l4.1 10.4 3.5-10.4h4.9l-6.4 16.8q-1 2.5-2.3 3.5-1.3 1-3.4 1h-2.9v-3.2h1.6q1.2 0 1.8-0.4 0.6-0.4 0.9-1.4l0.1-0.4z"/>
		</g>
		<g id="j">
			<path id="Layer" class="s0" d="m17.6 453.6h18.8v4h-6.8v16.4h-5.2v-16.4h-6.8z"/>
		</g>
		<g id="i">
			<path id="Layer" class="s0" d="m54.3 464.7v9.3h-4.9v-7.1q0-2-0.1-2.8-0.1-0.7-0.3-1.1-0.3-0.5-0.8-0.7-0.5-0.3-1.1-0.3-1.6 0-2.4 1.2-0.9 1.2-0.9 3.3v7.5h-4.9v-21.3h4.9v8.2q1.1-1.3 2.3-1.9 1.3-0.7 2.8-0.7 2.6 0 4 1.7 1.4 1.6 1.4 4.7z"/>
		</g>
		<g id="c">
			<path id="Layer" fill-rule="evenodd" class="s0" d="m66.1 458.3q4 0 6.2 2.2 2.2 2.1 2.2 5.9 0 3.7-2.2 5.9-2.2 2.1-6.2 2.1-3.9 0-6.2-2.1-2.2-2.2-2.2-5.9 0-3.8 2.2-5.9 2.3-2.2 6.2-2.2zm0 3.5q-1.6 0-2.5 1.2-0.8 1.2-0.8 3.4 0 2.2 0.8 3.3 0.9 1.2 2.5 1.2 1.6 0 2.5-1.2 0.8-1.1 0.8-3.3 0-2.2-0.8-3.4-0.9-1.2-2.5-1.2z"/>
		</g>
		<g id="f">
			<path id="Layer" class="s0" d="m92.3 461.2q0.9-1.4 2.2-2.1 1.2-0.8 2.8-0.8 2.6 0 4 1.7 1.4 1.6 1.4 4.7v9.3h-4.9v-8-0.3q0-0.2 0-0.6 0-1.6-0.5-2.4-0.5-0.7-1.5-0.7-1.4 0-2.2 1.2-0.8 1.1-0.8 3.3v7.5h-4.9v-8q0-2.5-0.4-3.3-0.5-0.7-1.6-0.7-1.4 0-2.2 1.2-0.7 1.1-0.7 3.3v7.5h-5v-15.3h5v2.2q0.9-1.3 2-1.9 1.2-0.7 2.6-0.7 1.6 0 2.8 0.8 1.2 0.7 1.9 2.1z"/>
		</g>
		<g id="e">
			<path id="Layer" fill-rule="evenodd" class="s0" d="m121.6 465.3v8.7h-4.9v-2.3q-1 1.4-2.3 2.1-1.2 0.6-3 0.6-2.3 0-3.8-1.4-1.5-1.4-1.5-3.6 0-2.7 1.8-3.9 1.9-1.3 5.9-1.3h2.9v-0.4q0-1.1-1-1.7-0.9-0.5-2.8-0.5-1.6 0-3 0.3-1.3 0.3-2.5 0.9v-3.7q1.6-0.4 3.2-0.6 1.6-0.2 3.2-0.2 4.1 0 5.9 1.7 1.9 1.6 1.9 5.3zm-7.5 1.8q-1.5 0-2.3 0.5-0.8 0.5-0.8 1.6 0 0.9 0.7 1.4 0.6 0.5 1.7 0.5 1.4 0 2.3-0.9 1-1 1-2.5v-0.6z"/>
		</g>
		<g id="h">
			<path id="Layer" class="s0" d="m138.1 459.2v3.7q-1.6-0.7-3-1-1.5-0.3-2.8-0.3-1.4 0-2.1 0.3-0.6 0.4-0.6 1.1 0 0.6 0.5 0.9 0.5 0.3 1.8 0.5l0.9 0.1q3.7 0.5 5 1.6 1.3 1.1 1.3 3.4 0 2.4-1.8 3.7-1.8 1.2-5.4 1.2-1.5 0-3.1-0.2-1.6-0.3-3.3-0.8v-3.7q1.4 0.7 3 1.1 1.5 0.3 3.1 0.3 1.4 0 2.2-0.3 0.7-0.5 0.7-1.2 0-0.7-0.5-1-0.5-0.3-2-0.5l-0.9-0.1q-3.2-0.4-4.5-1.5-1.4-1.1-1.4-3.4 0-2.4 1.7-3.6 1.7-1.2 5.1-1.2 1.4 0 2.9 0.2 1.5 0.2 3.2 0.7z"/>
		</g>
		<g id="t">
			<path id="Layer" class="s0" d="m152.8 453.6h6.7l4.6 10.9 4.7-10.9h6.7v20.4h-5v-14.9l-4.7 11h-3.3l-4.7-11v14.9h-5z"/>
		</g>
		<g id="a">
			<path id="Layer" fill-rule="evenodd" class="s0" d="m195.7 466.3v1.4h-11.4q0.1 1.7 1.2 2.6 1.1 0.8 3 0.8 1.5 0 3.1-0.4 1.7-0.5 3.4-1.4v3.8q-1.8 0.6-3.5 0.9-1.7 0.4-3.5 0.4-4.1 0-6.4-2.1-2.3-2.1-2.3-5.9 0-3.8 2.2-5.9 2.3-2.2 6.3-2.2 3.6 0 5.7 2.2 2.2 2.2 2.2 5.8zm-5-1.6q0-1.4-0.8-2.3-0.8-0.8-2.2-0.8-1.4 0-2.3 0.8-0.9 0.8-1.1 2.3z"/>
		</g>
		<g id="a">
			<path id="Layer" fill-rule="evenodd" class="s0" d="m214.7 466.3v1.4h-11.5q0.2 1.7 1.3 2.6 1.1 0.8 3 0.8 1.5 0 3.1-0.4 1.7-0.5 3.4-1.4v3.8q-1.8 0.6-3.5 0.9-1.7 0.4-3.5 0.4-4.1 0-6.4-2.1-2.3-2.1-2.3-5.9 0-3.8 2.2-5.9 2.3-2.2 6.2-2.2 3.7 0 5.8 2.2 2.2 2.2 2.2 5.8zm-5-1.6q0-1.4-0.8-2.3-0.9-0.8-2.2-0.8-1.4 0-2.3 0.8-0.9 0.8-1.1 2.3z"/>
		</g>
		<g id="b">
			<path id="Layer" class="s0" d="m229.8 462.9q-0.7-0.3-1.3-0.5-0.6-0.1-1.3-0.1-1.9 0-2.9 1.2-1 1.2-1 3.4v7.1h-4.9v-15.3h4.9v2.5q0.9-1.5 2.2-2.2 1.2-0.7 2.9-0.7 0.2 0 0.5 0 0.3 0.1 0.9 0.1z"/>
		</g>
		<g id="h">
			<path id="Layer" class="s0" d="m244.2 459.2v3.7q-1.6-0.7-3.1-1-1.4-0.3-2.7-0.3-1.4 0-2.1 0.3-0.7 0.4-0.7 1.1 0 0.6 0.5 0.9 0.6 0.3 1.9 0.5l0.8 0.1q3.8 0.5 5.1 1.6 1.3 1.1 1.3 3.4 0 2.4-1.8 3.7-1.8 1.2-5.4 1.2-1.5 0-3.1-0.2-1.7-0.3-3.4-0.8v-3.7q1.5 0.7 3 1.1 1.6 0.3 3.2 0.3 1.4 0 2.1-0.3 0.7-0.5 0.7-1.2 0-0.7-0.5-1-0.5-0.3-1.9-0.5l-0.9-0.1q-3.3-0.4-4.6-1.5-1.3-1.1-1.3-3.4 0-2.4 1.7-3.6 1.6-1.2 5.1-1.2 1.3 0 2.8 0.2 1.5 0.2 3.3 0.7z"/>
		</g>
		<g id="a">
			<path id="Layer" fill-rule="evenodd" class="s0" d="m264.2 466.3v1.4h-11.5q0.2 1.7 1.3 2.6 1 0.8 2.9 0.8 1.6 0 3.2-0.4 1.6-0.5 3.3-1.4v3.8q-1.7 0.6-3.4 0.9-1.8 0.4-3.5 0.4-4.2 0-6.5-2.1-2.3-2.1-2.3-5.9 0-3.8 2.3-5.9 2.3-2.2 6.2-2.2 3.6 0 5.8 2.2 2.2 2.2 2.2 5.8zm-5.1-1.6q0-1.4-0.8-2.3-0.8-0.8-2.1-0.8-1.4 0-2.3 0.8-0.9 0.8-1.1 2.3z"/>
		</g>
		<g id="f">
			<path id="Layer" class="s0" d="m282.1 461.2q0.9-1.4 2.2-2.1 1.2-0.8 2.8-0.8 2.6 0 4 1.7 1.4 1.6 1.4 4.7v9.3h-4.9v-8-0.3q0-0.2 0-0.6 0-1.6-0.5-2.4-0.5-0.7-1.5-0.7-1.4 0-2.2 1.2-0.8 1.1-0.8 3.3v7.5h-4.9v-8q0-2.5-0.4-3.3-0.5-0.7-1.6-0.7-1.4 0-2.2 1.2-0.7 1.1-0.7 3.3v7.5h-5v-15.3h5v2.2q0.9-1.3 2-1.9 1.2-0.7 2.6-0.7 1.6 0 2.8 0.8 1.2 0.7 1.9 2.1z"/>
		</g>
		<g id="e">
			<path id="Layer" fill-rule="evenodd" class="s0" d="m311.4 465.3v8.7h-4.9v-2.3q-1 1.4-2.3 2.1-1.2 0.6-3 0.6-2.3 0-3.8-1.4-1.5-1.4-1.5-3.6 0-2.7 1.8-3.9 1.9-1.3 5.9-1.3h2.9v-0.4q0-1.1-1-1.7-0.9-0.5-2.8-0.5-1.6 0-3 0.3-1.3 0.3-2.5 0.9v-3.7q1.6-0.4 3.2-0.6 1.6-0.2 3.2-0.2 4.1 0 5.9 1.7 1.9 1.6 1.9 5.3zm-7.5 1.8q-1.5 0-2.3 0.5-0.8 0.5-0.8 1.6 0 0.9 0.7 1.4 0.6 0.5 1.7 0.5 1.4 0 2.3-0.9 1-1 1-2.5v-0.6z"/>
		</g>
		<g id="g">
			<path id="Layer" class="s0" d="m331.3 464.7v9.3h-4.9v-7.1q0-2-0.1-2.8-0.1-0.7-0.3-1.1-0.3-0.5-0.8-0.7-0.5-0.3-1.1-0.3-1.5 0-2.4 1.2-0.9 1.2-0.9 3.3v7.5h-4.9v-15.3h4.9v2.2q1.1-1.3 2.4-1.9 1.2-0.7 2.7-0.7 2.7 0 4.1 1.7 1.3 1.6 1.3 4.7z"/>
		</g>
		<g id="s">
			<path id="Layer" class="s0" d="m-152.6 480.7v3.2h-2.7q-1 0-1.4 0.4-0.4 0.4-0.4 1.3v1.1h4.1v3.5h-4.1v11.8h-4.9v-11.8h-2.5v-3.5h2.5v-1.1q0-2.5 1.4-3.7 1.3-1.2 4.3-1.2z"/>
		</g>
		<g id="b">
			<path id="Layer" class="s0" d="m-139.1 490.9q-0.6-0.3-1.3-0.5-0.6-0.1-1.2-0.1-1.9 0-3 1.2-1 1.2-1 3.4v7.1h-4.9v-15.3h4.9v2.5q1-1.5 2.2-2.2 1.2-0.7 2.9-0.7 0.3 0 0.6 0 0.3 0.1 0.8 0.1z"/>
		</g>
		<g id="c">
			<path id="Layer" fill-rule="evenodd" class="s0" d="m-129.4 486.3q4 0 6.2 2.2 2.2 2.1 2.2 5.9 0 3.7-2.2 5.9-2.2 2.1-6.2 2.1-3.9 0-6.2-2.1-2.2-2.2-2.2-5.9 0-3.8 2.2-5.9 2.3-2.2 6.2-2.2zm0 3.5q-1.6 0-2.5 1.2-0.8 1.2-0.8 3.4 0 2.2 0.8 3.3 0.9 1.2 2.5 1.2 1.6 0 2.5-1.2 0.8-1.1 0.8-3.3 0-2.2-0.8-3.4-0.9-1.2-2.5-1.2z"/>
		</g>
		<g id="f">
			<path id="Layer" class="s0" d="m-103.2 489.2q0.9-1.4 2.2-2.1 1.3-0.8 2.8-0.8 2.6 0 4 1.7 1.4 1.6 1.4 4.7v9.3h-4.9v-8-0.3q0-0.2 0-0.6 0-1.6-0.5-2.4-0.5-0.7-1.5-0.7-1.4 0-2.2 1.2-0.8 1.1-0.8 3.3v7.5h-4.9v-8q0-2.5-0.4-3.3-0.5-0.7-1.6-0.7-1.4 0-2.2 1.2-0.7 1.1-0.7 3.3v7.5h-4.9v-15.3h4.9v2.2q0.9-1.3 2-1.9 1.2-0.7 2.6-0.7 1.6 0 2.8 0.8 1.2 0.7 1.9 2.1z"/>
		</g>
		<g id="d">
			<path id="Layer" class="s0" d="m-73.1 482.3v4.4h5v3.5h-5v6.5q0 1.1 0.4 1.4 0.4 0.4 1.6 0.4h2.6v3.5h-4.2q-2.9 0-4.1-1.2-1.3-1.2-1.3-4.1v-6.5h-2.4v-3.5h2.4v-4.4z"/>
		</g>
		<g id="i">
			<path id="Layer" class="s0" d="m-49.7 492.7v9.3h-4.9v-7.1q0-2-0.1-2.8-0.1-0.7-0.3-1.1-0.3-0.5-0.8-0.7-0.5-0.3-1.1-0.3-1.6 0-2.4 1.2-0.9 1.2-0.9 3.3v7.5h-4.9v-21.3h4.9v8.2q1.1-1.3 2.3-1.9 1.3-0.7 2.8-0.7 2.6 0 4 1.7 1.4 1.6 1.4 4.7z"/>
		</g>
		<g id="a">
			<path id="Layer" fill-rule="evenodd" class="s0" d="m-29.9 494.3v1.4h-11.4q0.1 1.7 1.2 2.6 1.1 0.8 3 0.8 1.5 0 3.1-0.4 1.7-0.5 3.4-1.4v3.8q-1.8 0.6-3.5 0.9-1.7 0.4-3.5 0.4-4.1 0-6.4-2.1-2.3-2.1-2.3-5.9 0-3.8 2.2-5.9 2.3-2.2 6.3-2.2 3.6 0 5.7 2.2 2.2 2.2 2.2 5.8zm-5-1.6q0-1.4-0.8-2.3-0.8-0.8-2.2-0.8-1.4 0-2.3 0.8-0.9 0.8-1.1 2.3z"/>
		</g>
		<g id="r">
			<path id="Layer" class="s0" d="m-16.2 481.6h5.9l7.4 14v-14h5v20.4h-5.9l-7.4-14v14h-5z"/>
		</g>
		<g id="c">
			<path id="Layer" fill-rule="evenodd" class="s0" d="m14.3 486.3q3.9 0 6.2 2.2 2.2 2.1 2.2 5.9 0 3.7-2.2 5.9-2.3 2.1-6.2 2.1-4 0-6.2-2.1-2.3-2.2-2.3-5.9 0-3.8 2.3-5.9 2.2-2.2 6.2-2.2zm0 3.5q-1.6 0-2.5 1.2-0.9 1.2-0.9 3.4 0 2.2 0.9 3.3 0.9 1.2 2.5 1.2 1.6 0 2.4-1.2 0.9-1.1 0.9-3.3 0-2.2-0.9-3.4-0.8-1.2-2.4-1.2z"/>
		</g>
		<g id="q">
			<path id="Layer" class="s0" d="m26.1 496v-9.3h4.9v1.5q0 1.3 0 3.1 0 1.9 0 2.5 0 1.9 0.1 2.7 0.1 0.8 0.3 1.2 0.3 0.5 0.8 0.7 0.5 0.3 1.1 0.3 1.5 0 2.4-1.2 0.9-1.2 0.9-3.3v-7.5h4.9v15.3h-4.9v-2.2q-1.1 1.3-2.4 2-1.2 0.6-2.7 0.6-2.7 0-4-1.6-1.4-1.7-1.4-4.8z"/>
		</g>
		<g id="g">
			<path id="Layer" class="s0" d="m61.6 492.7v9.3h-5v-7.1q0-2-0.1-2.8 0-0.7-0.3-1.1-0.2-0.5-0.7-0.7-0.5-0.3-1.2-0.3-1.5 0-2.4 1.2-0.8 1.2-0.8 3.3v7.5h-4.9v-15.3h4.9v2.2q1.1-1.3 2.3-1.9 1.3-0.7 2.8-0.7 2.6 0 4 1.7 1.4 1.6 1.4 4.7z"/>
		</g>
		<g id="p">
			<path id="Layer" fill-rule="evenodd" class="s0" d="m76.1 481.6h8.7q3.9 0 6 1.7 2.1 1.8 2.1 5 0 3.2-2.1 4.9-2.1 1.7-6 1.7h-3.5v7.1h-5.2zm5.2 3.8v5.7h2.9q1.6 0 2.4-0.7 0.8-0.8 0.8-2.1 0-1.4-0.8-2.2-0.8-0.7-2.4-0.7z"/>
		</g>
		<g id="b">
			<path id="Layer" class="s0" d="m107.7 490.9q-0.6-0.3-1.2-0.5-0.7-0.1-1.3-0.1-1.9 0-2.9 1.2-1 1.2-1 3.4v7.1h-4.9v-15.3h4.9v2.5q0.9-1.5 2.1-2.2 1.3-0.7 3-0.7 0.2 0 0.5 0 0.3 0.1 0.8 0.1z"/>
		</g>
		<g id="c">
			<path id="Layer" fill-rule="evenodd" class="s0" d="m117.5 486.3q3.9 0 6.1 2.2 2.2 2.1 2.3 5.9-0.1 3.7-2.3 5.9-2.2 2.1-6.1 2.1-4 0-6.2-2.1-2.3-2.2-2.3-5.9 0-3.8 2.3-5.9 2.2-2.2 6.2-2.2zm0 3.5q-1.7 0-2.5 1.2-0.9 1.2-0.9 3.4 0 2.2 0.9 3.3 0.8 1.2 2.5 1.2 1.6 0 2.4-1.2 0.9-1.1 0.9-3.3 0-2.2-0.9-3.4-0.8-1.2-2.4-1.2z"/>
		</g>
		<g id="o">
			<path id="Layer" class="s0" d="m129.4 486.7h4.9v15q0 3.1-1.5 4.7-1.4 1.6-4.3 1.6h-2.4v-3.2h0.9q1.4 0 1.9-0.6 0.5-0.6 0.5-2.5zm0-5.9h4.9v4h-4.9z"/>
		</g>
		<g id="a">
			<path id="Layer" fill-rule="evenodd" class="s0" d="m154.3 494.3v1.4h-11.5q0.2 1.7 1.3 2.6 1.1 0.8 3 0.8 1.5 0 3.1-0.4 1.7-0.5 3.4-1.4v3.8q-1.8 0.6-3.5 0.9-1.7 0.4-3.5 0.4-4.1 0-6.4-2.1-2.3-2.1-2.3-5.9 0-3.8 2.2-5.9 2.3-2.2 6.2-2.2 3.7 0 5.8 2.2 2.2 2.2 2.2 5.8zm-5-1.6q0-1.4-0.8-2.3-0.9-0.8-2.2-0.8-1.4 0-2.3 0.8-0.9 0.8-1.1 2.3z"/>
		</g>
		<g id="n">
			<path id="Layer" class="s0" d="m170.4 487.2v4q-1-0.7-2-1.1-1-0.3-2.1-0.3-2.1 0-3.2 1.2-1.2 1.2-1.2 3.4 0 2.1 1.2 3.3 1.1 1.2 3.2 1.2 1.1 0 2.2-0.3 1-0.4 1.9-1.1v4q-1.2 0.5-2.4 0.7-1.1 0.2-2.3 0.2-4.2 0-6.5-2.1-2.4-2.2-2.3-5.9-0.1-3.8 2.3-6 2.3-2.1 6.5-2.1 1.2 0 2.3 0.2 1.2 0.2 2.4 0.7z"/>
		</g>
		<g id="d">
			<path id="Layer" class="s0" d="m179.9 482.3v4.4h5.1v3.5h-5.1v6.5q0 1.1 0.5 1.4 0.4 0.4 1.6 0.4h2.6v3.5h-4.2q-2.9 0-4.2-1.2-1.2-1.2-1.2-4.1v-6.5h-2.4v-3.5h2.4v-4.4z"/>
		</g>
	</g>
</svg>