<svg width="2439" height="6900" viewBox="0 0 2439 6900" fill="none" xmlns="http://www.w3.org/2000/svg">
<g opacity="0.3">
<g filter="url(#filter0_f_573_2147)">
<path d="M580.835 587.316C803.314 500.145 1298.07 472.632 1380.75 683.766C1463.43 894.9 1102.71 1264.73 880.236 1351.9C657.757 1439.07 410.379 1338.58 327.702 1127.45C245.025 916.311 358.356 674.487 580.835 587.316Z" fill="#1ED291"/>
</g>
<g filter="url(#filter1_f_573_2147)">
<path d="M1763.88 382.183C1924.86 510.413 2154.72 872.663 2026.95 1033.17C1899.17 1193.68 1462.14 1091.67 1301.15 963.436C1140.17 835.206 1113.25 601.137 1241.03 440.628C1368.81 280.119 1602.89 253.952 1763.88 382.183Z" fill="#00754B"/>
</g>
</g>
<g opacity="0.3">
<g filter="url(#filter2_f_573_2147)">
<path d="M1490.18 2084.34C1577.36 2306.81 1604.87 2801.57 1393.73 2884.25C1182.6 2966.93 812.772 2606.21 725.601 2383.74C638.43 2161.26 738.922 1913.88 950.055 1831.2C1161.19 1748.52 1403.01 1861.86 1490.18 2084.34Z" fill="#1ED291"/>
</g>
<g filter="url(#filter3_f_573_2147)">
<path d="M1695.32 3267.38C1567.09 3428.36 1204.84 3658.22 1044.33 3530.45C883.82 3402.67 985.834 2965.64 1114.06 2804.66C1242.29 2643.67 1476.36 2616.75 1636.87 2744.53C1797.38 2872.31 1823.55 3106.39 1695.32 3267.38Z" fill="#00754B"/>
</g>
</g>
<g opacity="0.3">
<g filter="url(#filter4_f_573_2147)">
<path d="M1839.17 4799.69C1616.69 4886.86 1121.93 4914.37 1039.25 4703.24C956.575 4492.1 1317.29 4122.27 1539.77 4035.1C1762.24 3947.93 2009.62 4048.42 2092.3 4259.56C2174.98 4470.69 2061.65 4712.51 1839.17 4799.69Z" fill="#1ED291"/>
</g>
<g filter="url(#filter5_f_573_2147)">
<path d="M656.124 5004.82C495.14 4876.59 265.278 4514.34 393.055 4353.83C520.832 4193.32 957.862 4295.34 1118.85 4423.57C1279.83 4551.8 1306.75 4785.87 1178.97 4946.37C1051.19 5106.88 817.107 5133.05 656.124 5004.82Z" fill="#00754B"/>
</g>
</g>
<g opacity="0.3">
<g filter="url(#filter6_f_573_2147)">
<path d="M654.835 5803.32C877.314 5716.14 1372.07 5688.63 1454.75 5899.77C1537.43 6110.9 1176.71 6480.73 954.236 6567.9C731.757 6655.07 484.379 6554.58 401.702 6343.44C319.025 6132.31 432.356 5890.49 654.835 5803.32Z" fill="#1ED291"/>
</g>
<g filter="url(#filter7_f_573_2147)">
<path d="M1837.88 5598.18C1998.86 5726.41 2228.72 6088.66 2100.95 6249.17C1973.17 6409.68 1536.14 6307.67 1375.15 6179.44C1214.17 6051.21 1187.25 5817.14 1315.03 5656.63C1442.81 5496.12 1676.89 5469.95 1837.88 5598.18Z" fill="#00754B"/>
</g>
</g>
<defs>
<filter id="filter0_f_573_2147" x="0.667969" y="222.147" width="1692.16" height="1461.16" filterUnits="userSpaceOnUse" color-interpolation-filters="sRGB">
<feFlood flood-opacity="0" result="BackgroundImageFix"/>
<feBlend mode="normal" in="SourceGraphic" in2="BackgroundImageFix" result="shape"/>
<feGaussianBlur stdDeviation="150" result="effect1_foregroundBlur_573_2147"/>
</filter>
<filter id="filter1_f_573_2147" x="860.355" y="0.811523" width="1503.76" height="1414.69" filterUnits="userSpaceOnUse" color-interpolation-filters="sRGB">
<feFlood flood-opacity="0" result="BackgroundImageFix"/>
<feBlend mode="normal" in="SourceGraphic" in2="BackgroundImageFix" result="shape"/>
<feGaussianBlur stdDeviation="150" result="effect1_foregroundBlur_573_2147"/>
</filter>
<filter id="filter2_f_573_2147" x="394.191" y="1504.17" width="1461.16" height="1692.16" filterUnits="userSpaceOnUse" color-interpolation-filters="sRGB">
<feFlood flood-opacity="0" result="BackgroundImageFix"/>
<feBlend mode="normal" in="SourceGraphic" in2="BackgroundImageFix" result="shape"/>
<feGaussianBlur stdDeviation="150" result="effect1_foregroundBlur_573_2147"/>
</filter>
<filter id="filter3_f_573_2147" x="662.004" y="2363.86" width="1414.69" height="1503.76" filterUnits="userSpaceOnUse" color-interpolation-filters="sRGB">
<feFlood flood-opacity="0" result="BackgroundImageFix"/>
<feBlend mode="normal" in="SourceGraphic" in2="BackgroundImageFix" result="shape"/>
<feGaussianBlur stdDeviation="150" result="effect1_foregroundBlur_573_2147"/>
</filter>
<filter id="filter4_f_573_2147" x="727.17" y="3703.69" width="1692.16" height="1461.16" filterUnits="userSpaceOnUse" color-interpolation-filters="sRGB">
<feFlood flood-opacity="0" result="BackgroundImageFix"/>
<feBlend mode="normal" in="SourceGraphic" in2="BackgroundImageFix" result="shape"/>
<feGaussianBlur stdDeviation="150" result="effect1_foregroundBlur_573_2147"/>
</filter>
<filter id="filter5_f_573_2147" x="55.8848" y="3971.5" width="1503.76" height="1414.69" filterUnits="userSpaceOnUse" color-interpolation-filters="sRGB">
<feFlood flood-opacity="0" result="BackgroundImageFix"/>
<feBlend mode="normal" in="SourceGraphic" in2="BackgroundImageFix" result="shape"/>
<feGaussianBlur stdDeviation="150" result="effect1_foregroundBlur_573_2147"/>
</filter>
<filter id="filter6_f_573_2147" x="74.668" y="5438.15" width="1692.16" height="1461.16" filterUnits="userSpaceOnUse" color-interpolation-filters="sRGB">
<feFlood flood-opacity="0" result="BackgroundImageFix"/>
<feBlend mode="normal" in="SourceGraphic" in2="BackgroundImageFix" result="shape"/>
<feGaussianBlur stdDeviation="150" result="effect1_foregroundBlur_573_2147"/>
</filter>
<filter id="filter7_f_573_2147" x="934.355" y="5216.81" width="1503.76" height="1414.69" filterUnits="userSpaceOnUse" color-interpolation-filters="sRGB">
<feFlood flood-opacity="0" result="BackgroundImageFix"/>
<feBlend mode="normal" in="SourceGraphic" in2="BackgroundImageFix" result="shape"/>
<feGaussianBlur stdDeviation="150" result="effect1_foregroundBlur_573_2147"/>
</filter>
</defs>
</svg>
