<svg width="1754" height="2364" viewBox="0 0 1754 2364" fill="none" xmlns="http://www.w3.org/2000/svg">
<g opacity="0.3">
<g filter="url(#filter0_f_576_2156)">
<path d="M1096.18 580.334C1183.36 802.813 1210.87 1297.57 999.735 1380.25C788.601 1462.93 418.772 1102.21 331.601 879.735C244.43 657.256 344.922 409.878 556.055 327.201C767.189 244.524 1009.01 357.855 1096.18 580.334Z" fill="#1ED291"/>
</g>
<g filter="url(#filter1_f_576_2156)">
<path d="M1301.32 1763.38C1173.09 1924.36 810.838 2154.22 650.329 2026.45C489.82 1898.67 591.834 1461.64 720.065 1300.65C848.295 1139.67 1082.36 1112.75 1242.87 1240.53C1403.38 1368.31 1429.55 1602.39 1301.32 1763.38Z" fill="#00754B"/>
</g>
</g>
<defs>
<filter id="filter0_f_576_2156" x="0.19043" y="0.167969" width="1461.16" height="1692.16" filterUnits="userSpaceOnUse" color-interpolation-filters="sRGB">
<feFlood flood-opacity="0" result="BackgroundImageFix"/>
<feBlend mode="normal" in="SourceGraphic" in2="BackgroundImageFix" result="shape"/>
<feGaussianBlur stdDeviation="150" result="effect1_foregroundBlur_576_2156"/>
</filter>
<filter id="filter1_f_576_2156" x="268.004" y="859.855" width="1414.69" height="1503.76" filterUnits="userSpaceOnUse" color-interpolation-filters="sRGB">
<feFlood flood-opacity="0" result="BackgroundImageFix"/>
<feBlend mode="normal" in="SourceGraphic" in2="BackgroundImageFix" result="shape"/>
<feGaussianBlur stdDeviation="150" result="effect1_foregroundBlur_576_2156"/>
</filter>
</defs>
</svg>
