<svg width="1728" height="1117" viewBox="0 0 1728 1117" fill="none" xmlns="http://www.w3.org/2000/svg">
<g opacity="0.3">
<g filter="url(#filter0_f_514_229)">
<path d="M234.834 352.315C457.313 265.144 952.071 237.631 1034.75 448.765C1117.43 659.899 756.714 1029.73 534.235 1116.9C311.756 1204.07 64.3782 1103.58 -18.2991 892.444C-100.976 681.31 12.3552 439.486 234.834 352.315Z" fill="#1ED291"/>
</g>
<g filter="url(#filter1_f_514_229)">
<path d="M1417.88 147.182C1578.86 275.412 1808.72 637.662 1680.95 798.171C1553.17 958.68 1116.14 856.666 955.155 728.435C794.171 600.205 767.252 366.136 895.029 205.627C1022.81 45.1182 1256.89 18.9513 1417.88 147.182Z" fill="#00754B"/>
</g>
</g>
<defs>
<filter id="filter0_f_514_229" x="-345.332" y="-12.8542" width="1692.16" height="1461.16" filterUnits="userSpaceOnUse" color-interpolation-filters="sRGB">
<feFlood flood-opacity="0" result="BackgroundImageFix"/>
<feBlend mode="normal" in="SourceGraphic" in2="BackgroundImageFix" result="shape"/>
<feGaussianBlur stdDeviation="150" result="effect1_foregroundBlur_514_229"/>
</filter>
<filter id="filter1_f_514_229" x="514.355" y="-234.19" width="1503.76" height="1414.69" filterUnits="userSpaceOnUse" color-interpolation-filters="sRGB">
<feFlood flood-opacity="0" result="BackgroundImageFix"/>
<feBlend mode="normal" in="SourceGraphic" in2="BackgroundImageFix" result="shape"/>
<feGaussianBlur stdDeviation="150" result="effect1_foregroundBlur_514_229"/>
</filter>
</defs>
</svg>
