<svg width="316" height="20" viewBox="0 0 316 20" fill="none" xmlns="http://www.w3.org/2000/svg">
<path d="M1.0968 17.6176C1.47387 19.0694 1.47396 19.0694 1.47453 19.0693C1.47538 19.0691 1.47644 19.0688 1.47814 19.0683C1.48153 19.0675 1.48688 19.0661 1.49419 19.0642C1.50882 19.0604 1.53129 19.0547 1.56157 19.047C1.62212 19.0315 1.7139 19.0083 1.83664 18.9776C2.08211 18.9162 2.45139 18.8251 2.94226 18.7072C3.924 18.4715 5.39209 18.1288 7.32878 17.7032C11.2022 16.8519 16.9499 15.6689 24.4299 14.3464C39.3901 11.7014 61.2786 8.49863 88.9599 6.27588C144.324 1.83031 222.851 1.30561 315.461 16.9991L315.962 14.0413C223.067 -1.70045 144.287 -1.17643 88.7198 3.28551C60.9355 5.51652 38.9525 8.73222 23.9076 11.3922C16.385 12.7222 10.5968 13.9134 6.68483 14.7731C4.72886 15.203 3.24194 15.55 2.24185 15.7902C1.7418 15.9102 1.36345 16.0036 1.10903 16.0672C0.981816 16.099 0.885583 16.1233 0.820608 16.1399C0.78812 16.1482 0.763446 16.1545 0.746622 16.1588C0.738209 16.161 0.731759 16.1627 0.727276 16.1638C0.725034 16.1644 0.723147 16.1649 0.722026 16.1652C0.720632 16.1655 0.719729 16.1658 1.0968 17.6176Z" fill="#1ED291"/>
</svg>
